<svg id="Layer_1" data-name="Layer 1" xmlns="http://www.w3.org/2000/svg" viewBox="0 0 151.96 68.55"><defs><style>.cls-1{fill:#fff;}.cls-2{fill:#e84b37;}</style></defs><title>illinois_wordmark_footer1</title><path class="cls-1" d="M41.63,84.18V61h5.1V84.18Z" transform="translate(-41.63 -16.03)"/><path class="cls-1" d="M52.79,84.18V61h5.1V79.54H69.43v4.63Z" transform="translate(-41.63 -16.03)"/><path class="cls-1" d="M73.17,84.18V61h5.1V79.54H89.81v4.63Z" transform="translate(-41.63 -16.03)"/><path class="cls-1" d="M93.66,84.18V61h5.1V84.18Z" transform="translate(-41.63 -16.03)"/><path class="cls-1" d="M121.06,84.18,109.84,69.45V84.18h-5V61h4.7l10.86,14.26V61h5V84.18Z" transform="translate(-41.63 -16.03)"/><path class="cls-1" d="M142.5,84.57a11.87,11.87,0,0,1-12.28-11.92v-.07a12.32,12.32,0,0,1,24.62-.07v.07A12,12,0,0,1,142.5,84.57Zm7-12a7,7,0,0,0-7-7.28,6.93,6.93,0,0,0-7,7.22v.07a7,7,0,0,0,7,7.28,6.93,6.93,0,0,0,7-7.21Z" transform="translate(-41.63 -16.03)"/><path class="cls-1" d="M159.78,84.18V61h5.1V84.18Z" transform="translate(-41.63 -16.03)"/><path class="cls-1" d="M179.08,84.51a14.74,14.74,0,0,1-9.83-3.71l3-3.61A10.63,10.63,0,0,0,179.17,80c2.08,0,3.34-.83,3.34-2.18v-.07c0-1.29-.79-2-4.67-2.95-4.67-1.19-7.68-2.48-7.68-7.08v-.07c0-4.2,3.38-7,8.11-7a13.41,13.41,0,0,1,8.61,2.95l-2.65,3.84a10.87,10.87,0,0,0-6-2.28c-2,0-3,.89-3,2v.07c0,1.52,1,2,5,3,4.7,1.22,7.35,2.91,7.35,7v.07C187.58,81.93,184.07,84.51,179.08,84.51Z" transform="translate(-41.63 -16.03)"/><path class="cls-1" d="M125.59,24.57V16h-22v8.54h4.88V39.21h-4.88v8.54h22V39.21h-4.88V24.57Zm-4.88,15.86h3.66v6.1H104.85v-6.1h3.66a1.22,1.22,0,0,0,1.22-1.22V24.57a1.22,1.22,0,0,0-1.22-1.22h-3.66v-6.1h19.52v6.1h-3.66a1.22,1.22,0,0,0-1.22,1.22V39.21a1.22,1.22,0,0,0,1.22,1.22" transform="translate(-41.63 -16.03)"/><path class="cls-2" d="M120.71,23.35h3.66v-6.1H104.85v6.1h3.66a1.22,1.22,0,0,1,1.22,1.22V39.21a1.22,1.22,0,0,1-1.22,1.22h-3.66v6.1h19.52v-6.1h-3.66a1.22,1.22,0,0,1-1.22-1.22V24.57a1.22,1.22,0,0,1,1.22-1.22" transform="translate(-41.63 -16.03)"/><polygon class="cls-1" points="151.36 65.71 150.63 67.43 149.93 65.71 149.32 65.71 149.32 68.15 149.69 68.15 149.69 66.08 149.7 66.08 150.52 68.15 150.74 68.15 151.58 66.08 151.59 66.08 151.59 68.15 151.96 68.15 151.96 65.71 151.36 65.71"/><polygon class="cls-1" points="146.9 66.08 147.7 66.08 147.7 68.15 148.07 68.15 148.07 66.08 148.87 66.08 148.87 65.71 146.9 65.71 146.9 66.08"/></svg>