<svg height="42" width="33" id="Layer_1" data-name="Layer 1" xmlns="http://www.w3.org/2000/svg" viewBox="0 0 54.15 78.22"><defs><style>.cls-1{fill:#fff;}.cls-2{fill:#e84a27;}</style></defs><title>imark1</title><path class="cls-1" d="M135.08,32.12V11.06H80.92V32.12H93v36.1h-12V89.28h54.15V68.23H123V32.12ZM123,71.23h9v15H83.93v-15h9a3,3,0,0,0,3-3V32.12a3,3,0,0,0-3-3h-9v-15h48.14v15h-9a3,3,0,0,0-3,3v36.1A3,3,0,0,0,123,71.23Z" transform="translate(-80.92 -11.06)"/><path class="cls-2" d="M123,29.11h9v-15H83.93v15h9a3,3,0,0,1,3,3v36.1a3,3,0,0,1-3,3h-9v15h48.14v-15h-9a3,3,0,0,1-3-3V32.12A3,3,0,0,1,123,29.11Z" transform="translate(-80.92 -11.06)"/></svg>